<svg xmlns="http://www.w3.org/2000/svg" xmlns:xlink="http://www.w3.org/1999/xlink" width="500" zoomAndPan="magnify" viewBox="0 0 375 374.999991" height="500" preserveAspectRatio="xMidYMid meet" version="1.0"><defs><clipPath id="1954e79c6f"><path d="M 83.445312 28.242188 L 291.765625 28.242188 L 291.765625 326.742188 L 83.445312 326.742188 Z M 83.445312 28.242188 " clip-rule="nonzero"/></clipPath><clipPath id="d6b0d44bff"><path d="M 155 183 L 312 183 L 312 347 L 155 347 Z M 155 183 " clip-rule="nonzero"/></clipPath><clipPath id="f2c6a14ac1"><path d="M 166.125 138.085938 L 319.417969 177.390625 L 271.171875 365.550781 L 117.878906 326.246094 Z M 166.125 138.085938 " clip-rule="nonzero"/></clipPath><clipPath id="8a6b609962"><path d="M 166.125 138.085938 L 319.417969 177.390625 L 271.171875 365.550781 L 117.878906 326.246094 Z M 166.125 138.085938 " clip-rule="nonzero"/></clipPath><clipPath id="da71918060"><path d="M 161 152 L 259 152 L 259 190 L 161 190 Z M 161 152 " clip-rule="nonzero"/></clipPath><clipPath id="c314a1376c"><path d="M 166.125 138.085938 L 319.417969 177.390625 L 271.171875 365.550781 L 117.878906 326.246094 Z M 166.125 138.085938 " clip-rule="nonzero"/></clipPath><clipPath id="1f2ababcc5"><path d="M 166.125 138.085938 L 319.417969 177.390625 L 271.171875 365.550781 L 117.878906 326.246094 Z M 166.125 138.085938 " clip-rule="nonzero"/></clipPath></defs><rect x="-37.5" width="450" fill="#ffffff" y="-37.499999" height="449.999989" fill-opacity="1"/><rect x="-37.5" width="450" fill="#ffffff" y="-37.499999" height="449.999989" fill-opacity="1"/><g clip-path="url(#1954e79c6f)"><path fill="#efefed" d="M 272.875 326.746094 L 102.335938 326.746094 C 91.902344 326.746094 83.445312 318.300781 83.445312 307.882812 L 83.445312 47.105469 C 83.445312 36.6875 91.902344 28.242188 102.335938 28.242188 L 272.875 28.242188 C 283.308594 28.242188 291.765625 36.6875 291.765625 47.105469 L 291.765625 307.882812 C 291.765625 318.300781 283.308594 326.746094 272.875 326.746094 " fill-opacity="1" fill-rule="nonzero"/></g><g clip-path="url(#d6b0d44bff)"><g clip-path="url(#f2c6a14ac1)"><g clip-path="url(#8a6b609962)"><path fill="#27333e" d="M 286.449219 185.84375 L 206.066406 240.214844 L 213.84375 218.089844 C 217.667969 207.222656 213.085938 195.710938 202.953125 190.726562 C 198.910156 188.734375 193.882812 190.417969 191.742188 194.476562 C 184.066406 209.054688 165.582031 244.890625 159.519531 263.203125 C 159.09375 264.296875 156.332031 271.683594 155.535156 281.988281 C 154.402344 296.566406 157.773438 310.136719 165.285156 321.238281 C 175.199219 335.898438 188.21875 344.332031 203.984375 346.296875 C 215.378906 347.71875 227.523438 345.308594 238.191406 339.515625 L 273.914062 320.101562 C 274.015625 320.050781 274.113281 319.988281 274.207031 319.925781 C 281.8125 314.796875 284.011719 304.71875 279.113281 297.476562 L 279.097656 297.453125 C 278.308594 296.292969 276.726562 295.988281 275.5625 296.773438 L 265.21875 303.769531 C 263.902344 304.660156 262.109375 304.3125 261.21875 302.996094 C 260.328125 301.679688 260.675781 299.886719 261.992188 298.996094 L 273.84375 290.980469 C 281.195312 285.789062 283.269531 275.894531 278.4375 268.75 L 278.421875 268.726562 C 277.636719 267.566406 276.054688 267.261719 274.890625 268.046875 L 262.605469 276.355469 C 261.296875 277.242188 259.476562 277.003906 258.554688 275.726562 C 257.597656 274.402344 257.933594 272.558594 259.277344 271.652344 L 273.132812 262.277344 C 280.53125 257.097656 282.628906 247.171875 277.785156 240.007812 L 277.769531 239.988281 C 276.988281 238.832031 275.421875 238.53125 274.269531 239.3125 L 252.699219 253.902344 C 251.390625 254.785156 249.570312 254.546875 248.648438 253.269531 C 247.691406 251.945312 248.027344 250.105469 249.371094 249.195312 L 304.210938 212.101562 C 311.460938 207.195312 313.363281 197.34375 308.457031 190.09375 C 303.554688 182.84375 293.703125 180.941406 286.449219 185.84375 " fill-opacity="1" fill-rule="nonzero"/></g></g></g><g clip-path="url(#da71918060)"><g clip-path="url(#c314a1376c)"><g clip-path="url(#1f2ababcc5)"><path fill="#27333e" d="M 246.304688 179.664062 L 237.046875 181.90625 C 235.042969 182.390625 233.816406 184.402344 234.300781 186.40625 C 234.78125 188.425781 236.835938 189.636719 238.800781 189.152344 L 255.421875 185.128906 C 257.507812 184.886719 259.046875 182.585938 258.484375 180.539062 L 254.257812 163.386719 C 253.765625 161.386719 251.746094 160.167969 249.75 160.660156 C 247.75 161.152344 246.527344 163.171875 247.019531 165.171875 L 248.78125 172.324219 C 228.117188 158.351562 207.886719 154 193.851562 152.917969 C 176.507812 151.585938 164.785156 154.753906 164.292969 154.886719 C 162.308594 155.4375 161.144531 157.492188 161.691406 159.472656 C 162.242188 161.457031 164.292969 162.621094 166.277344 162.074219 C 166.386719 162.046875 177.222656 159.117188 193.28125 160.351562 C 206.761719 161.386719 226.382812 165.664062 246.304688 179.664062 " fill-opacity="1" fill-rule="nonzero"/></g></g></g><path fill="#1be4a1" d="M 333.363281 72.675781 C 328.78125 49.113281 300.070312 48.722656 292.992188 70.746094 C 285.914062 48.722656 257.203125 49.113281 252.621094 72.675781 C 248.464844 94.050781 292.992188 127.773438 292.992188 127.773438 C 292.992188 127.773438 337.519531 94.050781 333.363281 72.675781 Z M 333.363281 72.675781 " fill-opacity="1" fill-rule="nonzero"/></svg>