<svg xmlns="http://www.w3.org/2000/svg" xmlns:xlink="http://www.w3.org/1999/xlink" width="500" zoomAndPan="magnify" viewBox="0 0 375 374.999991" height="500" preserveAspectRatio="xMidYMid meet" version="1.0"><defs><clipPath id="41fc3ad807"><path d="M 83.445312 28.242188 L 291.765625 28.242188 L 291.765625 326.742188 L 83.445312 326.742188 Z M 83.445312 28.242188 " clip-rule="nonzero"/></clipPath><clipPath id="10d73cea21"><path d="M 65 192 L 236 192 L 236 342 L 65 342 Z M 65 192 " clip-rule="nonzero"/></clipPath><clipPath id="84c90c6776"><path d="M 46.4375 177.023438 L 201.441406 138.378906 L 248.433594 326.859375 L 93.429688 365.503906 Z M 46.4375 177.023438 " clip-rule="nonzero"/></clipPath><clipPath id="2c72b8b6bb"><path d="M 46.4375 177.023438 L 201.441406 138.378906 L 248.433594 326.859375 L 93.429688 365.503906 Z M 46.4375 177.023438 " clip-rule="nonzero"/></clipPath><clipPath id="8e45a9c710"><path d="M 99 154 L 198 154 L 198 192 L 99 192 Z M 99 154 " clip-rule="nonzero"/></clipPath><clipPath id="e3ac016025"><path d="M 46.4375 177.023438 L 201.441406 138.378906 L 248.433594 326.859375 L 93.429688 365.503906 Z M 46.4375 177.023438 " clip-rule="nonzero"/></clipPath><clipPath id="7aac762d50"><path d="M 46.4375 177.023438 L 201.441406 138.378906 L 248.433594 326.859375 L 93.429688 365.503906 Z M 46.4375 177.023438 " clip-rule="nonzero"/></clipPath><clipPath id="4787e0b4f8"><path d="M 42.15625 37.5 L 124.65625 37.5 L 124.65625 120 L 42.15625 120 Z M 42.15625 37.5 " clip-rule="nonzero"/></clipPath></defs><rect x="-37.5" width="450" fill="#ffffff" y="-37.499999" height="449.999989" fill-opacity="1"/><rect x="-37.5" width="450" fill="#ffffff" y="-37.499999" height="449.999989" fill-opacity="1"/><g clip-path="url(#41fc3ad807)"><path fill="#efefed" d="M 272.875 326.746094 L 102.335938 326.746094 C 91.902344 326.746094 83.445312 318.300781 83.445312 307.882812 L 83.445312 47.105469 C 83.445312 36.6875 91.902344 28.242188 102.335938 28.242188 L 272.875 28.242188 C 283.308594 28.242188 291.765625 36.6875 291.765625 47.105469 L 291.765625 307.882812 C 291.765625 318.300781 283.308594 326.746094 272.875 326.746094 " fill-opacity="1" fill-rule="nonzero"/></g><g clip-path="url(#10d73cea21)"><g clip-path="url(#84c90c6776)"><g clip-path="url(#2c72b8b6bb)"><path fill="#27333e" d="M 68.960938 218.210938 L 129.332031 294.285156 L 106.667969 288.207031 C 95.527344 285.21875 84.390625 290.664062 80.1875 301.15625 C 78.507812 305.339844 80.570312 310.230469 84.785156 312.058594 C 99.917969 318.605469 137.082031 334.324219 155.816406 338.980469 C 156.9375 339.324219 164.523438 341.515625 174.863281 341.527344 C 189.496094 341.546875 202.78125 337.148438 213.289062 328.8125 C 227.164062 317.800781 234.585938 304.164062 235.347656 288.285156 C 235.898438 276.808594 232.570312 264.871094 225.976562 254.671875 L 203.886719 220.5 C 203.824219 220.40625 203.757812 220.308594 203.6875 220.222656 C 197.988281 213.023438 187.769531 211.59375 180.914062 217.035156 L 180.890625 217.050781 C 179.789062 217.929688 179.609375 219.53125 180.480469 220.632812 L 188.25 230.417969 C 189.238281 231.667969 189.03125 233.480469 187.78125 234.46875 C 186.535156 235.460938 184.722656 235.25 183.730469 234.003906 L 174.832031 222.789062 C 169.089844 215.847656 159.058594 214.53125 152.296875 219.894531 L 152.277344 219.910156 C 151.175781 220.785156 150.992188 222.386719 151.867188 223.488281 L 161.09375 235.117188 C 162.078125 236.351562 161.980469 238.1875 160.773438 239.207031 C 159.523438 240.257812 157.660156 240.066406 156.652344 238.792969 L 146.246094 225.679688 C 140.511719 218.691406 130.445312 217.355469 123.667969 222.734375 L 123.648438 222.75 C 122.558594 223.617188 122.375 225.203125 123.242188 226.296875 L 139.441406 246.710938 C 140.421875 247.945312 140.328125 249.78125 139.121094 250.800781 C 137.871094 251.855469 136.007812 251.660156 135 250.390625 L 93.8125 198.492188 C 88.367188 191.628906 78.386719 190.480469 71.527344 195.925781 C 64.664062 201.371094 63.515625 211.347656 68.960938 218.210938 " fill-opacity="1" fill-rule="nonzero"/></g></g></g><g clip-path="url(#8e45a9c710)"><g clip-path="url(#e3ac016025)"><g clip-path="url(#7aac762d50)"><path fill="#27333e" d="M 99.136719 184.183594 C 99.359375 185.742188 100.730469 187.085938 102.253906 187.285156 L 118.980469 191.449219 C 120.957031 191.949219 123.035156 190.746094 123.535156 188.710938 C 124.035156 186.699219 122.808594 184.660156 120.796875 184.15625 L 111.480469 181.839844 C 131.539062 167.941406 151.21875 163.738281 164.734375 162.75 C 180.996094 161.558594 192.152344 164.617188 192.265625 164.644531 C 194.261719 165.210938 196.332031 164.050781 196.898438 162.054688 C 197.464844 160.058594 196.304688 157.980469 194.308594 157.414062 C 193.8125 157.273438 182.015625 154.003906 164.53125 155.230469 C 150.375 156.222656 129.957031 160.476562 109.03125 174.417969 L 110.855469 167.222656 C 111.363281 165.210938 110.148438 163.167969 108.136719 162.65625 C 106.125 162.148438 104.078125 163.367188 103.570312 165.378906 L 99.195312 182.636719 C 99.066406 183.148438 99.054688 183.671875 99.136719 184.183594 " fill-opacity="1" fill-rule="nonzero"/></g></g></g><g clip-path="url(#4787e0b4f8)"><path fill="#ed1d2b" d="M 124.660156 78.753906 C 124.660156 101.535156 106.191406 120.003906 83.410156 120.003906 C 60.628906 120.003906 42.160156 101.535156 42.160156 78.753906 C 42.160156 55.972656 60.628906 37.503906 83.410156 37.503906 C 106.191406 37.503906 124.660156 55.972656 124.660156 78.753906 " fill-opacity="1" fill-rule="nonzero"/></g><path fill="#ffffff" d="M 103.761719 58.402344 C 101.765625 56.410156 98.535156 56.410156 96.539062 58.402344 L 83.410156 71.53125 L 70.28125 58.402344 C 68.285156 56.410156 65.054688 56.410156 63.058594 58.402344 C 61.066406 60.398438 61.066406 63.632812 63.058594 65.625 L 76.1875 78.753906 L 63.058594 91.882812 C 61.066406 93.878906 61.066406 97.109375 63.058594 99.105469 C 65.054688 101.097656 68.285156 101.097656 70.28125 99.105469 L 83.410156 85.976562 L 96.539062 99.105469 C 98.535156 101.097656 101.765625 101.097656 103.761719 99.105469 C 105.753906 97.109375 105.753906 93.878906 103.761719 91.882812 L 90.632812 78.753906 L 103.761719 65.625 C 105.753906 63.632812 105.753906 60.398438 103.761719 58.402344 " fill-opacity="1" fill-rule="nonzero"/></svg>