<svg xmlns="http://www.w3.org/2000/svg" xmlns:xlink="http://www.w3.org/1999/xlink" width="500" zoomAndPan="magnify" viewBox="0 0 375 374.999991" height="500" preserveAspectRatio="xMidYMid meet" version="1.0"><defs><clipPath id="353c61a301"><path d="M 83.445312 28.242188 L 291.765625 28.242188 L 291.765625 326.742188 L 83.445312 326.742188 Z M 83.445312 28.242188 " clip-rule="nonzero"/></clipPath><clipPath id="304e9731d8"><path d="M 128 177.046875 L 277.125 177.046875 L 277.125 353.492188 L 128 353.492188 Z M 128 177.046875 " clip-rule="nonzero"/></clipPath><clipPath id="155bec2e20"><path d="M 101 153.242188 L 131 153.242188 L 131 173 L 101 173 Z M 101 153.242188 " clip-rule="nonzero"/></clipPath><clipPath id="a97bb7bee8"><path d="M 132 10.183594 L 243 10.183594 L 243 116 L 132 116 Z M 132 10.183594 " clip-rule="nonzero"/></clipPath></defs><rect x="-37.5" width="450" fill="#ffffff" y="-37.499999" height="449.999989" fill-opacity="1"/><rect x="-37.5" width="450" fill="#ffffff" y="-37.499999" height="449.999989" fill-opacity="1"/><g clip-path="url(#353c61a301)"><path fill="#efefed" d="M 272.875 326.746094 L 102.335938 326.746094 C 91.902344 326.746094 83.445312 318.300781 83.445312 307.882812 L 83.445312 47.105469 C 83.445312 36.6875 91.902344 28.242188 102.335938 28.242188 L 272.875 28.242188 C 283.308594 28.242188 291.765625 36.6875 291.765625 47.105469 L 291.765625 307.882812 C 291.765625 318.300781 283.308594 326.746094 272.875 326.746094 " fill-opacity="1" fill-rule="nonzero"/></g><g clip-path="url(#304e9731d8)"><path fill="#27333e" d="M 264.417969 245.929688 C 274.226562 269.59375 281.113281 286.207031 274.535156 316.773438 C 274.449219 317.164062 274.414062 317.550781 274.433594 317.925781 C 274.445312 318.222656 274.496094 318.535156 274.582031 318.851562 C 274.609375 318.929688 274.636719 319.007812 274.660156 319.085938 L 270.515625 320.320312 L 274.652344 319.101562 L 276.640625 325.789062 C 276.667969 325.863281 276.695312 325.941406 276.71875 326.019531 L 276.707031 326.019531 L 276.710938 326.027344 L 276.714844 326.027344 C 277.203125 327.585938 277.015625 329.207031 276.316406 330.5625 C 275.617188 331.917969 274.402344 333.011719 272.839844 333.519531 L 212.089844 353.285156 C 211.996094 353.320312 211.902344 353.355469 211.804688 353.386719 L 211.199219 351.464844 L 211.195312 351.472656 L 211.789062 353.382812 L 211.773438 353.386719 C 210.214844 353.878906 208.59375 353.691406 207.238281 352.992188 C 206.023438 352.363281 205.023438 351.324219 204.457031 349.996094 C 204.382812 349.832031 204.316406 349.660156 204.261719 349.480469 C 204.246094 349.441406 204.238281 349.402344 204.226562 349.367188 L 204.242188 349.363281 L 203.019531 345.144531 C 202.988281 345.0625 202.957031 344.976562 202.933594 344.890625 L 202.945312 344.886719 L 202.941406 344.875 L 202.9375 344.878906 C 202.761719 344.324219 202.480469 343.820312 202.113281 343.390625 C 201.796875 343.019531 201.414062 342.707031 200.976562 342.460938 C 172.601562 332.808594 166.164062 324.542969 156.332031 311.914062 C 151.347656 305.507812 145.425781 297.90625 134.832031 288.300781 C 131.796875 286.34375 129.6875 283.417969 128.695312 280.148438 C 127.664062 276.75 127.847656 272.988281 129.460938 269.566406 C 131.136719 265.996094 134.066406 263.394531 137.488281 262.0625 C 140.792969 260.773438 144.550781 260.664062 148.078125 262 C 154.160156 263.371094 160.503906 268.632812 165.617188 273.710938 L 140.503906 196.527344 C 140.472656 196.449219 140.441406 196.367188 140.417969 196.285156 L 140.421875 196.28125 L 142.632812 195.5625 L 144.527344 194.945312 L 140.421875 196.28125 C 139.191406 192.496094 139.609375 188.574219 141.277344 185.296875 C 142.902344 182.101562 145.71875 179.511719 149.359375 178.238281 C 149.453125 178.199219 149.554688 178.164062 149.65625 178.128906 L 149.660156 178.136719 L 150.480469 180.660156 L 150.996094 182.242188 L 149.660156 178.136719 C 153.445312 176.90625 157.367188 177.324219 160.644531 178.992188 C 163.925781 180.664062 166.570312 183.589844 167.804688 187.375 L 177.125 216.027344 C 178.78125 212.824219 181.621094 210.230469 185.285156 208.953125 C 185.382812 208.910156 185.484375 208.875 185.585938 208.839844 L 185.589844 208.847656 L 185.894531 209.789062 L 186.921875 212.953125 L 185.589844 208.847656 C 189.429688 207.597656 193.40625 208.023438 196.738281 209.71875 C 198.609375 210.667969 200.273438 212.023438 201.597656 213.707031 C 203.320312 210.878906 206 208.609375 209.359375 207.433594 C 209.5625 207.351562 209.773438 207.28125 209.988281 207.226562 C 213.789062 206.082031 217.699219 206.535156 220.988281 208.207031 C 223.988281 209.734375 226.472656 212.277344 227.878906 215.558594 C 229.589844 212.980469 232.125 210.925781 235.261719 209.832031 C 235.359375 209.792969 235.457031 209.753906 235.558594 209.722656 L 235.5625 209.726562 L 236.382812 212.25 L 236.898438 213.832031 L 235.5625 209.726562 C 239.371094 208.488281 243.332031 208.902344 246.671875 210.570312 C 250.007812 212.242188 252.710938 215.167969 254.003906 218.964844 C 257.515625 229.285156 261.136719 238.015625 264.417969 245.929688 " fill-opacity="1" fill-rule="nonzero"/></g><path fill="#27333e" d="M 111.25 161.035156 C 106.035156 176.964844 101.597656 193.453125 99.714844 210.140625 C 97.875 226.421875 98.5625 242.699219 103.367188 258.429688 C 103.445312 258.691406 103.542969 258.949219 103.652344 259.1875 L 105.757812 258.6875 L 105.734375 258.605469 L 116.039062 256.136719 C 116.007812 255.640625 115.921875 255.140625 115.769531 254.640625 C 111.488281 240.636719 110.964844 226.074219 112.597656 211.585938 C 114.382812 195.800781 118.636719 180.140625 123.570312 165.074219 C 124.683594 161.675781 122.824219 158.007812 119.429688 156.894531 C 116.03125 155.78125 112.363281 157.640625 111.25 161.035156 " fill-opacity="1" fill-rule="evenodd"/><g clip-path="url(#155bec2e20)"><path fill="#27333e" d="M 109.773438 165.855469 L 109.75 165.933594 L 122.058594 170.035156 L 122.085938 169.953125 L 130.4375 172.734375 L 120.761719 153.398438 L 101.425781 163.070312 L 109.773438 165.855469 " fill-opacity="1" fill-rule="evenodd"/></g><g clip-path="url(#a97bb7bee8)"><path fill="#2db1ff" d="M 190.972656 13.058594 L 204.964844 41.410156 C 205.53125 42.554688 206.621094 43.347656 207.882812 43.53125 L 239.167969 48.078125 C 242.347656 48.539062 243.617188 52.445312 241.316406 54.6875 L 218.679688 76.753906 C 217.765625 77.644531 217.347656 78.929688 217.5625 80.1875 L 222.910156 111.34375 C 223.453125 114.511719 220.128906 116.925781 217.285156 115.429688 L 189.300781 100.71875 C 188.171875 100.125 186.824219 100.125 185.695312 100.71875 L 157.710938 115.429688 C 154.867188 116.925781 151.542969 114.511719 152.085938 111.34375 L 157.429688 80.1875 C 157.648438 78.929688 157.230469 77.644531 156.316406 76.753906 L 133.679688 54.6875 C 131.378906 52.445312 132.648438 48.539062 135.828125 48.078125 L 167.113281 43.53125 C 168.375 43.347656 169.464844 42.554688 170.03125 41.410156 L 184.023438 13.058594 C 185.445312 10.179688 189.550781 10.179688 190.972656 13.058594 Z M 190.972656 13.058594 " fill-opacity="1" fill-rule="nonzero"/></g></svg>