<svg
xmlns="http://www.w3.org/2000/svg"
width={1440}
height={872}
viewBox="0 0 1440 872"
fill="none">
  <g clipPath="url(#Pattern_svg__a)">
    <rect width={1440} height={872} fill="#F0F8FF" />
    <g clipPath="url(#Pattern_svg__b)">
      <path
      fillRule="evenodd"
      clipRule="evenodd"
      d="M820.774 441.562C840.903 422.659 872.546 423.652 891.45 443.781C1140.86 709.364 1409.5 894.956 1712.91 894.956C1740.52 894.956 1762.91 917.341 1762.91 944.956C1762.91 972.57 1740.52 994.96 1712.91 994.96C1366.87 994.96 1073.26 783.46 818.555 512.238C799.651 492.109 800.644 460.466 820.774 441.562Z"
      fill="white"
      fillOpacity="0.4"
      stroke="white"
      strokeOpacity="0.8"
      strokeWidth={2}
      strokeLinecap="round"
    />
      <path
      fillRule="evenodd"
      clipRule="evenodd"
      d="M551.002 -111.941C556.498 -139.003 582.891 -156.486 609.953 -150.99C702.335 -132.229 797.806 -85.9747 887.658 -39.3317C904.737 -30.466 921.613 -21.5875 938.3 -12.8088C1011.89 26.9071 1081.8 63.6812 1149.05 88.852C1231.59 119.745 1299.45 128.766 1355.36 108.478C1409.44 88.8576 1465.21 36.8876 1512.37 -85.0298C1522.33 -110.784 1551.29 -123.586 1577.04 -113.623C1602.8 -103.66 1615.6 -74.7049 1605.63 -48.9506C1552.8 87.6319 1481.03 169.261 1389.47 202.482C1299.75 235.036 1203.87 216.142 1114 182.508C1040.22 154.894 963.279 114.383 889.463 75.515C873.332 67.0217 857.351 58.6068 841.585 50.4222C751.118 3.46006 667.032 -36.3573 590.051 -51.9904C562.989 -57.486 545.506 -83.8791 551.002 -111.941Z"
      fill="white"
      fillOpacity="0.3"
      stroke="white"
      strokeOpacity="0.8"
      strokeWidth={2}
      strokeLinecap="round"
    />
      <path
      fillRule="evenodd"
      clipRule="evenodd"
      d="M-111.339 256.631C-108.588 229.154 -84.0838 209.11 -56.6069 211.861C-40.8248 213.441 -26.0382 220.114 -15.2533 225.788C-3.29496 232.079 9.46595 240.279 22.3617 249.438C48.2348 267.814 77.8244 292.327 107.678 319.407C167.183 373.383 231.552 441.038 273.639 497.553C290.132 519.7 285.549 551.025 263.401 567.518C241.254 584.012 209.929 579.428 193.436 557.281C156.377 507.518 96.9027 444.645 40.4921 393.475C12.3875 367.982 -14.9998 346.268 -36.5439 330.967C-47.3565 323.287 -56.1641 317.785 -62.8123 314.288C-66.8567 312.16 -69.039 311.346 -69.6612 311.11C-96.0556 307.358 -115.02 283.405 -111.339 256.631Z"
      fill="white"
      fillOpacity="0.3"
      stroke="white"
      strokeOpacity="0.8"
      strokeWidth={2}
      strokeLinecap="round"
    />
      <path
      fillRule="evenodd"
      clipRule="evenodd"
      d="M-289.887 -46.3229C-288.046 -73.8757 -264.218 -94.7196 -236.665 -92.879C-112.999 -84.6178 34.3221 -62.092 198.437 13.3416C362.471 88.738 540.789 215.831 728.599 430.048C746.803 450.812 744.728 482.402 723.964 500.606C703.2 518.811 671.61 516.736 653.405 495.972C473.589 290.872 306.291 172.973 156.674 104.203C7.13723 35.4703 -127.228 14.6545 -243.331 6.89859C-270.884 5.05804 -291.727 -18.77 -289.887 -46.3229Z"
      fill="white"
      fillOpacity="0.3"
      stroke="white"
      strokeOpacity="0.8"
      strokeWidth={2}
      strokeLinecap="round"
    />
      <path
      d="M1256 35.5098C1256 77.2073 1222.2 111.01 1180.5 111.01C1138.8 111.01 1105 77.2073 1105 35.5098C1105 -6.18771 1138.8 -39.9902 1180.5 -39.9902C1222.2 -39.9902 1256 -6.18771 1256 35.5098Z"
      fill="white"
      fillOpacity="0.3"
    />
      <path
      d="M1180.5 112.01C1222.75 112.01 1257 77.7596 1257 35.5098C1257 -6.74002 1222.75 -40.9902 1180.5 -40.9902C1138.25 -40.9902 1104 -6.74002 1104 35.5098C1104 77.7596 1138.25 112.01 1180.5 112.01Z"
      stroke="white"
      strokeOpacity="0.8"
      strokeWidth={2}
    />
      <path
      d="M277.002 764.51C277.002 822.224 230.216 869.01 172.502 869.01C114.788 869.01 68.0019 822.224 68.0019 764.51C68.0019 706.796 114.788 660.01 172.502 660.01C230.216 660.01 277.002 706.796 277.002 764.51Z"
      fill="white"
      fillOpacity="0.3"
    />
      <path
      d="M172.502 870.01C230.768 870.01 278.002 822.776 278.002 764.51C278.002 706.244 230.768 659.01 172.502 659.01C114.236 659.01 67.0019 706.244 67.0019 764.51C67.0019 822.776 114.236 870.01 172.502 870.01Z"
      stroke="white"
      strokeOpacity="0.8"
      strokeWidth={2}
    />
      <path
      fillRule="evenodd"
      clipRule="evenodd"
      d="M1765.76 247.767C1779.15 271.918 1770.42 302.351 1746.27 315.739C1653.58 367.128 1577.44 431.846 1559.25 510.744C1542.26 584.434 1571.48 695.826 1754.72 854.179C1775.62 872.235 1777.92 903.809 1759.86 924.703C1741.81 945.596 1710.23 947.896 1689.34 929.841C1497.08 763.694 1432.05 617.335 1461.81 488.276C1490.37 364.424 1601.98 281.392 1697.79 228.28C1721.94 214.891 1752.37 223.616 1765.76 247.767Z"
      fill="white"
      fillOpacity="0.3"
      stroke="white"
      strokeOpacity="0.8"
      strokeWidth={2}
      strokeLinecap="round"
    />
      <path
      d="M477.459 637.882C479.51 667.635 457.053 693.416 427.3 695.467C397.547 697.518 371.765 675.061 369.715 645.308C367.664 615.555 390.121 589.773 419.874 587.723C449.627 585.672 475.409 608.129 477.459 637.882Z"
      fill="white"
      fillOpacity="0.3"
    />
      <path
      d="M427.369 696.465C457.673 694.376 480.546 668.117 478.457 637.813C476.368 607.509 450.109 584.636 419.805 586.725C389.502 588.814 366.629 615.073 368.717 645.377C370.806 675.68 397.065 698.553 427.369 696.465Z"
      stroke="white"
      strokeOpacity="0.8"
      strokeWidth={2}
    />
      <path
      fillRule="evenodd"
      clipRule="evenodd"
      d="M502.071 715.17C524.57 699.159 555.788 704.418 571.8 726.917C606.055 775.053 698.303 870.306 811.085 904.227C837.53 912.18 852.519 940.065 844.566 966.509C836.612 992.95 808.728 1007.94 782.284 999.991C640.192 957.254 531.547 842.824 490.325 784.898C474.313 762.4 479.573 731.181 502.071 715.17Z"
      fill="white"
      fillOpacity="0.3"
      stroke="white"
      strokeOpacity="0.8"
      strokeWidth={2}
      strokeLinecap="round"
    />
    </g>
  </g>
  <defs>
    <clipPath id="Pattern_svg__a">
      <rect width={1440} height={872} fill="white" />
    </clipPath>
    <clipPath id="Pattern_svg__b">
      <rect
      width={1712}
      height={875}
      fill="white"
      transform="translate(-136 -2)"
    />
    </clipPath>
  </defs>
</svg>